<svg width="59" height="61" viewBox="0 0 59 61" fill="none" xmlns="http://www.w3.org/2000/svg">
<path d="M2.75309 59V57.35L27.8331 17.64C28.6031 16.43 29.4831 15.33 30.4731 14.12H3.96309V1.8H53.2431V3.45L27.9431 43.82C27.3931 44.81 26.6231 45.69 25.8531 46.68H52.6931V59H2.75309ZM29.7246 60.43C12.0146 60.43 0.13457 47.01 0.13457 30.51C0.13457 14.01 12.5646 0.369994 29.7246 0.369994C46.8846 0.369994 58.7646 14.01 58.7646 30.51C58.7646 32.16 58.6546 33.92 58.3246 35.79H15.5346C17.1846 42.5 22.2446 47.23 29.7246 47.23C36.1046 47.23 41.0546 43.93 43.6946 39.53L55.2446 48.22C50.6246 55.37 41.0546 60.43 29.7246 60.43ZM15.5346 24.68H43.8046C42.1546 18.3 36.7646 13.13 29.5046 13.13C22.4646 13.13 17.1846 17.86 15.5346 24.68ZM6.29371 59V57.35L31.3737 17.64C32.1437 16.43 33.0237 15.33 34.0137 14.12H7.50371V1.8H56.7837V3.45L31.4837 43.82C30.9337 44.81 30.1637 45.69 29.3937 46.68H56.2337V59H6.29371Z" fill="#151515"/>
</svg>
